<svg xmlns="http://www.w3.org/2000/svg" viewBox="0 0 512 512"><defs><linearGradient id="g" x1="72" y1="52" x2="448" y2="468" gradientUnits="userSpaceOnUse"><stop stop-color="#a65bff"/><stop offset=".48" stop-color="#715cff"/><stop offset="1" stop-color="#28c6ff"/></linearGradient><filter id="s"><feGaussianBlur stdDeviation="16"/></filter></defs><rect width="512" height="512" rx="118" fill="#0c0b24"/><rect x="25" y="25" width="462" height="462" rx="101" fill="url(#g)"/><circle cx="148" cy="130" r="91" fill="#f06bff" opacity=".42" filter="url(#s)"/><path fill="#fff" d="M280 75c19 78-36 96-21 155 8 32 44 36 42 79-2 51-42 88-94 88-59 0-104-45-104-103 0-49 30-78 74-110-8 55 18 76 43 56 34-27 8-82 60-165Zm-87 168c-26 23-38 44-38 67 0 30 22 52 52 52 24 0 43-16 47-39-34 6-66-20-61-80Z"/></svg>
